<?xml version="1.0" encoding="utf-8"?>
<!-- Generator: Adobe Illustrator 16.0.0, SVG Export Plug-In . SVG Version: 6.00 Build 0)  -->
<!DOCTYPE svg PUBLIC "-//W3C//DTD SVG 1.1//EN" "http://www.w3.org/Graphics/SVG/1.1/DTD/svg11.dtd">
<svg version="1.1" id="Layer_1" xmlns="http://www.w3.org/2000/svg" xmlns:xlink="http://www.w3.org/1999/xlink" x="0px" y="0px"
	 width="960px" height="960px" viewBox="0 0 960 960" enable-background="new 0 0 960 960" xml:space="preserve">
<g>
	<g>
		<g>
			<path fill="none" stroke="#939598" stroke-width="24.0995" stroke-miterlimit="10" d="M405.888,627.454
				c0,100.734-81.666,182.444-182.413,182.444c-100.776,0-182.468-81.71-182.468-182.444c0-100.772,81.691-182.439,182.468-182.439
				C324.222,445.015,405.888,526.682,405.888,627.454z"/>
			<path fill="none" stroke="#939598" stroke-width="24.0995" stroke-miterlimit="10" d="M918.993,627.454
				c0,100.734-81.662,182.444-182.416,182.444c-100.778,0-182.442-81.71-182.442-182.444c0-100.772,81.664-182.439,182.442-182.439
				C837.331,445.015,918.993,526.682,918.993,627.454z"/>
			
				<path fill="none" stroke="#939598" stroke-width="24.0995" stroke-linecap="round" stroke-linejoin="round" stroke-miterlimit="10" d="
				M672.707,172.6c0,45.594-36.929,82.538-82.541,82.538c-45.543,0-82.51-36.944-82.51-82.538c0-45.588,36.967-82.538,82.51-82.538
				C635.778,90.062,672.707,127.012,672.707,172.6z"/>
			<path fill="none" stroke="#939598" stroke-width="24.0995" stroke-miterlimit="10" d="M242.962,356.813
				c31.37-61.663,95.336-103.932,169.237-103.932c73.964,0,137.934,42.269,169.281,103.932"/>
		</g>
		<path fill="none" stroke="#939598" stroke-width="24.0995" stroke-miterlimit="10" d="M232.153,363.233
			c146.245,0,264.816,118.591,264.816,264.862c0,16.685-1.527,33.067-4.52,48.931"/>
	</g>
	<path fill="none" stroke="#939598" stroke-width="24.0995" stroke-linejoin="round" stroke-miterlimit="10" d="M723.787,361.369
		c-11.439,18.197-29.979,31.773-52.625,36.56c-37.886,7.964-75.239-11.405-91.321-44.761"/>
</g>
</svg>
